# xmcd
#
# Track frame offsets:
# 182
# 20347
# 40135
# 62540
#
# Disc length: 1348 seconds
#
# Revision: 1
# Processed by: cddbd v1.5.1PL0 Copyright (c) Steve Scherf et al.
# Submitted via: CedeCatalogueitor 2.6.0.4 http://personales.ya.com/cdcatalogueitor
#
DISCID=27054204
DTITLE=TLC - Creep Single
DYEAR=1996
DGENRE=
TTITLE0=Creep
TTITLE1=Waterfalls
TTITLE2=Creep (Maxx Remix)
TTITLE3=Creep (Tin Tin Out Remix)
EXTD=
EXTT0=
EXTT1=
EXTT2=
EXTT3=
PLAYORDER=
